<svg width="25" height="26" viewBox="0 0 25 26" fill="none" xmlns="http://www.w3.org/2000/svg">
<path d="M3.1639 3.15762H21.4398C21.709 3.15762 21.9673 3.26737 22.1577 3.46272C22.3481 3.65807 22.4551 3.92302 22.4551 4.19929V20.866C22.4551 21.1422 22.3481 21.4072 22.1577 21.6025C21.9673 21.7979 21.709 21.9076 21.4398 21.9076H3.1639C2.89462 21.9076 2.63637 21.7979 2.44596 21.6025C2.25555 21.4072 2.14857 21.1422 2.14857 20.866V4.19929C2.14857 3.92302 2.25555 3.65807 2.44596 3.46272C2.63637 3.26737 2.89462 3.15762 3.1639 3.15762V3.15762ZM4.17923 5.24096V19.8243H20.4244V5.24096H4.17923ZM7.2252 13.5743H9.25586V17.741H7.2252V13.5743ZM11.2865 7.32429H13.3172V17.741H11.2865V7.32429ZM15.3478 10.4493H17.3785V17.741H15.3478V10.4493Z" fill="#3E88D1"/>
</svg>
