<svg width="25" height="25" viewBox="0 0 25 25" fill="none" xmlns="http://www.w3.org/2000/svg">
<g clip-path="url(#clip0_2_105)">
<path d="M19.9375 13.4792C19.9792 13.1667 20 12.8438 20 12.5C20 12.1667 19.9792 11.8333 19.9271 11.5208L22.0417 9.875C22.2292 9.72917 22.2813 9.44792 22.1667 9.23958L20.1667 5.78125C20.0417 5.55208 19.7813 5.47917 19.5521 5.55208L17.0625 6.55208C16.5417 6.15625 15.9896 5.82292 15.375 5.57292L15 2.92708C14.9583 2.67708 14.75 2.5 14.5 2.5H10.5C10.25 2.5 10.0521 2.67708 10.0104 2.92708L9.63542 5.57292C9.02084 5.82292 8.45834 6.16667 7.94792 6.55208L5.45834 5.55208C5.22917 5.46875 4.96875 5.55208 4.84375 5.78125L2.85417 9.23958C2.72917 9.45833 2.77084 9.72917 2.97917 9.875L5.09375 11.5208C5.04167 11.8333 5 12.1771 5 12.5C5 12.8229 5.02084 13.1667 5.07292 13.4792L2.95834 15.125C2.77084 15.2708 2.71875 15.5521 2.83334 15.7604L4.83334 19.2188C4.95834 19.4479 5.21875 19.5208 5.44792 19.4479L7.9375 18.4479C8.45834 18.8437 9.01042 19.1771 9.625 19.4271L10 22.0729C10.0521 22.3229 10.25 22.5 10.5 22.5H14.5C14.75 22.5 14.9583 22.3229 14.9896 22.0729L15.3646 19.4271C15.9792 19.1771 16.5417 18.8437 17.0521 18.4479L19.5417 19.4479C19.7708 19.5312 20.0313 19.4479 20.1563 19.2188L22.1563 15.7604C22.2813 15.5312 22.2292 15.2708 22.0313 15.125L19.9375 13.4792ZM12.5 16.25C10.4375 16.25 8.75 14.5625 8.75 12.5C8.75 10.4375 10.4375 8.75 12.5 8.75C14.5625 8.75 16.25 10.4375 16.25 12.5C16.25 14.5625 14.5625 16.25 12.5 16.25Z" fill="#3A82CA"/>
</g>
<defs>
<clipPath id="clip0_2_105">
<rect width="25" height="25" fill="white"/>
</clipPath>
</defs>
</svg>
